<?xml version="1.0" encoding="UTF-8"?>
<svg width="74px" height="74px" viewBox="0 0 74 74" version="1.1" xmlns="http://www.w3.org/2000/svg" xmlns:xlink="http://www.w3.org/1999/xlink">
    <!-- Generator: Sketch 55.1 (78136) - https://sketchapp.com -->
    <title>Group</title>
    <desc>Created with Sketch.</desc>
    <defs>
        <polygon id="path-1" points="0 2364 1920 2364 1920 0 0 0"/>
    </defs>
    <g id="Page-1" stroke="none" stroke-width="1" fill="none" fill-rule="evenodd">
        <g id="Group-30" transform="translate(-70.000000, -69.000000)">
            <g id="Group-27">
                <g id="Group">
                    <path d="M136.1763,138.8401 L136.1763,133.6841 L136.2863,133.6841 L137.3493,133.6841 L137.3493,138.7811 C137.3653,140.6191 138.2733,141.5941 139.8493,141.6001 C141.3703,141.5901 142.2983,140.7041 142.3073,138.8401 L142.3073,133.6841 L142.4173,133.6841 L143.4873,133.6841 L143.4873,138.7681 C143.4843,141.3391 142.0053,142.7181 139.8233,142.7211 C137.6743,142.7181 136.1833,141.3421 136.1763,138.8401" id="Fill-1" fill="#0A0B09"/>
                    <polygon id="Fill-3" fill="#0A0B09" points="104.5496 142.5859 104.5496 133.6839 104.6556 133.6839 105.7936 133.6839 105.7936 141.4669 110.6356 141.4669 110.6356 141.5729 110.6356 142.5859"/>
                    <polygon id="Fill-5" fill="#0A0B09" points="107.4719 78.458 106.3309 78.458 106.3309 69.662 106.3309 69.556 106.4409 69.556 107.5779 69.556 107.5779 78.458"/>
                    <path d="M70.0007,73.9971 C70.0037,71.4471 72.0687,69.3801 74.6177,69.3801 C75.7387,69.3801 76.7667,69.7811 77.5627,70.4451 L77.6467,70.5141 L76.9117,71.4001 L76.8277,71.3311 C76.2257,70.8281 75.4617,70.5161 74.6177,70.5141 C72.6977,70.5191 71.1417,72.0741 71.1417,73.9971 C71.1417,75.9191 72.6977,77.4721 74.6177,77.4771 C75.4617,77.4751 76.2257,77.1631 76.8277,76.6631 L76.9117,76.5921 L77.6497,77.4771 L77.5627,77.5441 C76.7667,78.2101 75.7387,78.6111 74.6177,78.6111 C72.0687,78.6081 70.0037,76.5441 70.0007,73.9971" id="Fill-7" fill="#0A0B09"/>
                    <path d="M135.9636,106.1489 C135.9636,103.5999 138.0326,101.5349 140.5776,101.5349 C141.6986,101.5349 142.7266,101.9339 143.5256,102.6009 L143.6096,102.6689 L142.8746,103.5539 L142.7906,103.4859 C142.1846,102.9819 141.4246,102.6709 140.5776,102.6709 C138.6576,102.6739 137.1006,104.2249 137.1006,106.1489 C137.1006,108.0689 138.6576,109.6249 140.5776,109.6319 C141.4246,109.6289 142.1846,109.3179 142.7906,108.8139 L142.8746,108.7459 L143.6096,109.6289 L143.5256,109.6979 C142.7266,110.3619 141.6986,110.7629 140.5776,110.7629 C138.0326,110.7629 135.9636,108.6979 135.9636,106.1489" id="Fill-9" fill="#0A0B09"/>
                    <path d="M139.8655,73.6279 C140.9675,73.6249 141.8985,72.9799 141.9015,72.0619 C141.8985,71.0729 141.0215,70.6879 139.6265,70.6799 L137.7355,70.6799 L137.7355,73.6279 L139.8655,73.6279 Z M142.7135,76.1699 C143.2355,76.9389 143.5835,77.7439 143.7255,78.3259 L143.7575,78.4579 L142.3855,78.4579 L142.3685,78.3719 C142.2815,77.9309 141.9145,77.1539 141.5345,76.5839 C140.9355,75.6819 139.9655,74.7199 138.8085,74.7219 L137.7355,74.7219 L137.7355,78.4579 L137.6295,78.4579 L136.5405,78.4509 L136.5405,69.5549 L139.7015,69.5589 C141.6345,69.5619 143.1035,70.4439 143.1035,72.0269 C143.1065,73.4539 142.1015,74.1929 140.9605,74.4819 L141.1255,74.5779 C141.7985,75.0279 142.3175,75.5949 142.7135,76.1699 L142.7135,76.1699 Z" id="Fill-11" fill="#0A0B09"/>
                    <path d="M73.3257,105.759 C74.4277,105.756 75.3587,105.108 75.3617,104.192 C75.3587,103.202 74.4857,102.819 73.0847,102.809 L71.1957,102.809 L71.1957,105.759 L73.3257,105.759 Z M76.1737,108.301 C76.6997,109.068 77.0467,109.872 77.1857,110.457 L77.2217,110.587 L75.8487,110.587 L75.8297,110.503 C75.7387,110.06 75.3747,109.285 74.9947,108.714 C74.3957,107.813 73.4257,106.851 72.2687,106.853 L71.1957,106.853 L71.1957,110.587 L71.0897,110.587 L70.0007,110.584 L70.0007,101.685 L73.1647,101.691 C75.0947,101.691 76.5637,102.574 76.5667,104.156 C76.5697,105.579 75.5677,106.326 74.4177,106.614 L74.5857,106.711 C75.2587,107.161 75.7777,107.724 76.1737,108.301 L76.1737,108.301 Z" id="Fill-13" fill="#0A0B09"/>
                    <mask id="mask-2" fill="white">
                        <use xlink:href="#path-1"/>
                    </mask>
                    <g id="Clip-16"/>
                    <polygon id="Fill-15" fill="#0A0B09" mask="url(#mask-2)" points="92.177 120.89 121.726 120.89 121.726 91.341 92.177 91.341"/>
                    <path d="M76.145,139.2351 L74.412,135.2351 L72.665,139.2351 L76.145,139.2351 Z M78.677,142.5861 L77.588,142.5861 L77.07,141.3871 L76.609,140.3181 L72.195,140.3181 L71.731,141.3871 L71.206,142.5861 L71.138,142.5861 L70.001,142.5861 L74.163,133.1211 L74.234,133.1211 L74.611,133.1211 L74.682,133.1211 L78.842,142.5861 L78.677,142.5861 Z" id="Fill-17" fill="#0A0B09" mask="url(#mask-2)"/>
                </g>
            </g>
        </g>
    </g>
</svg>